<svg id="Layer_1" data-name="Layer 1" xmlns="http://www.w3.org/2000/svg" viewBox="0 0 299.48 42.52"><defs><style>.cls-1{fill:#fff;}</style></defs><title>logo</title><path class="cls-1" d="M159.28,281.26a9.43,9.43,0,0,0-4.94,1.69,6.31,6.31,0,0,0-2.6,3.59l-.93,3.52c0,.07-.65,2.58.29,4.16,1.21,2,4.35,1.78,4.44,1.78h9.38a1,1,0,0,1,.64.23.67.67,0,0,1,.19.7L165.2,299a1.41,1.41,0,0,1-.56.72,1.53,1.53,0,0,1-.8.31H148.12l-1.22,4.57h20.77a6.85,6.85,0,0,0,4.65-1.49,7.93,7.93,0,0,0,2.67-4l.94-3.62a5,5,0,0,0-.53-4.35,3.86,3.86,0,0,0-2.92-1.5H161.32a1.41,1.41,0,0,1-.71-.17.68.68,0,0,1-.23-.78l.53-2a1.46,1.46,0,0,1,.5-.62,1.15,1.15,0,0,1,.83-.27h15l1.23-4.61H159.28m65,4.61h6.1a.93.93,0,0,1,.76.39,1,1,0,0,1,.18.85l-3.1,11.62a2.53,2.53,0,0,1-.66.93,1.53,1.53,0,0,1-.89.4h-6.18Zm-9.43-4.61-8.56,32.16h10.65l2.35-8.78h12.11a7.13,7.13,0,0,0,5.06-2.08,10,10,0,0,0,2.79-5l2.44-9.09c0-.12,1.11-3.35-.23-5.31a4.44,4.44,0,0,0-3.8-1.88Zm64,0-6.26,23.38h10.78l3.77-14.07a4.08,4.08,0,0,1,1.84-2,6.89,6.89,0,0,1,3.25-.9h6.26l1.72-6.38h-7.05a4.77,4.77,0,0,0-2.32.72,5.86,5.86,0,0,0-1.74,1.37l.53-2.08Zm-96.29,0-4.46,16.64a7,7,0,0,0,.41,4.46c1.09,2.41,3.93,2.28,4,2.28h22.67l6.26-23.38H200.66L196,298.91a1.64,1.64,0,0,1-.59.75,1.71,1.71,0,0,1-1.05.4h-4.84a1.11,1.11,0,0,1-.84-.4.88.88,0,0,1-.18-.89l4.69-17.52Zm73.23,5.94a2,2,0,0,1,.66-.93,1.32,1.32,0,0,1,.91-.4h5.17a.77.77,0,0,1,.69.41,1.24,1.24,0,0,1,.15,1l-1,3.67h-7.58Zm-3.86-5.94a6.54,6.54,0,0,0-4.41,1.61,10.89,10.89,0,0,0-2.67,4.87l-2.73,10.52c0,.08-.89,3.1,0,4.75,1,1.85,3.51,1.64,3.62,1.64H269.2l1.23-4.57H254.35a1.6,1.6,0,0,1-1.29-.81,1.74,1.74,0,0,1-.24-1.28l.67-2.53h18.06l2.26-8.29a5.88,5.88,0,0,0-.23-4.44c-.95-1.61-3.59-1.45-3.72-1.45Zm151.65,5.94a1.92,1.92,0,0,1,.63-.9,1.89,1.89,0,0,1,1.24-.48H410a1.21,1.21,0,0,1,1,.48,1.17,1.17,0,0,1,.13.93l-1,3.67h-7.59Zm-3.86-5.94a6.33,6.33,0,0,0-4.51,1.71,10.79,10.79,0,0,0-2.5,4.76l-2.79,10.52c0,.08-.93,2.88,0,4.61,1,2,3.55,1.78,3.66,1.78h23.37l1.23-4.57h-16a1.55,1.55,0,0,1-1.25-.78,1.72,1.72,0,0,1-.26-1.31l.67-2.53h18.05l2.26-8.29c0-.13.87-2.73-.25-4.47-1-1.49-3.57-1.43-3.7-1.43Zm30.86-8.48-2.29,8.48h-3.42l-1.25,4.61h3.56l-3.42,12.68a5.66,5.66,0,0,0,.32,4.33c1.09,1.83,3.61,1.75,3.76,1.75H442l1.28-4.57h-7.81a1.16,1.16,0,0,1-1-.36.9.9,0,0,1-.06-.88l3.45-12.95h7.26l1.25-4.61h-7.26l2.29-8.48Zm-58.64,13.08h6a.91.91,0,0,1,.8.49,1.65,1.65,0,0,1,.09,1.17l-3,11a1.79,1.79,0,0,1-.68,1,1.81,1.81,0,0,1-1.1.48h-5.94Zm-7.25-13.08-8.47,31.86h22.58a8.19,8.19,0,0,0,5.14-1.9,9.7,9.7,0,0,0,2.94-4.89l2.57-9.67c0-.13,1-3-.27-5.06a4.4,4.4,0,0,0-4.08-1.86H373.18l2.26-8.48Zm-57.63,36c12.06,6.7,25.05,2.87,29.38-2.12a28.26,28.26,0,0,0,9-4.52c-2.88,10.45-23.75,17.25-38.22,7.41a9.66,9.66,0,0,1-3.06-3.17A10.94,10.94,0,0,0,307,308.81Zm12.18-32.58c-1,0-2.81-.22-3.49.62a14.09,14.09,0,0,0-2.74,3.6c-.64,1.2-.09,2.32.47,3.51.43.93,1.25.83,2.2.82a7.84,7.84,0,0,0,1.88,0,7.93,7.93,0,0,0,2.15-2c.48-.64.92-1.15,1.39-1.83s0-1.52-.27-2.19C320.21,277.22,320.08,276.29,319.2,276.23Zm-8.13,5.89a13.93,13.93,0,0,1,5.11-7c-.21.41-.1.69-.48,1a10.75,10.75,0,0,0-2,2c-1.61,2.22-1.26,2.66-1.61,2.91A2.91,2.91,0,0,0,311.07,282.12Zm7.61-8.41a5.7,5.7,0,0,1,4.25-.38c.32.14.27.4-.05.54a8.44,8.44,0,0,0-2.29,1.51c-.65.56-1.38.38-2.24.41h-.95C315.84,275.81,317.08,274.45,318.68,273.71Zm-7.08,8.5c.23-.27.52-.14.61.19a17.69,17.69,0,0,0,.75,2.1,1.3,1.3,0,0,1,.08,1,15.53,15.53,0,0,0-.95,3C310.25,287.36,310.17,283.86,311.61,282.21Zm10.7-7.28a4,4,0,0,1,3.42-.75,17.56,17.56,0,0,1,3.7,1.35c1,.5,1.83,3.18,1.62,3.76s-1.58,1.43-2.29,1.89c-1.26.82-1.79.68-3.16.18a9,9,0,0,1-3.13-1.33,7.25,7.25,0,0,1-1.53-3.08C320.59,275.94,321.55,275.37,322.3,274.93Zm-6.4,19.69c.15.15.18.57.32.83a12.59,12.59,0,0,1-4.89-6.53,5.91,5.91,0,0,1,1.34,1.63,13.74,13.74,0,0,0,.89,1.43A30.65,30.65,0,0,0,315.9,294.61Zm14.82-2.43a5.27,5.27,0,0,1-1.83,3,9.27,9.27,0,0,1-4.56,1.44c-1.22-.08-2.92-1.53-3.5-2.07-.36-1,.87-3.71,1.35-4.3.3-.37,1.75-.39,2.37-.54a12.52,12.52,0,0,0,2.21-.74c1-.37,1.68.48,2.39,1S331,291,330.72,292.19ZM327.47,287c0,1.26-1.44,1.66-2.48,1.95a10,10,0,0,1-2.66.38c-.94-.37-2.2-2.23-2.76-3-.8-1.17-.78-1.17,0-2.27s1.62-2.05,1.88-2.42c.51-.73,2-.26,3.14.12,2,.64,2.77,1,2.81,1.68C327.5,284.79,327.46,285.57,327.47,287ZM325,273a12.34,12.34,0,0,1,5.12,2.2.75.75,0,0,0-.37,0,20.94,20.94,0,0,0-2.21-1,14.61,14.61,0,0,0-2.12-.6,6.39,6.39,0,0,1-1.56-.35c-.27-.16-.37-.26-.65-.41A12.45,12.45,0,0,1,325,273Zm9.69,8.57c-1.23-1.69-2.92-1.67-3.07-2.43a11.79,11.79,0,0,0-1.27-3.36.37.37,0,0,1,.3-.19A12.57,12.57,0,0,1,334.73,281.6Zm-3.82-1c1.12-.8,2.73.48,3.44,1.35,1,1.25.79,3.63.61,5.12a3.89,3.89,0,0,1-2.12,2.95c-1.55.84-3.1-.67-3.85-1.31s-.85-1.95-.85-3.48c0-.94-.11-2.42.42-2.84C329.36,281.73,330.08,281.18,330.92,280.58Zm19.81,10.7c.27-7.64-6.34-12.71-10.08-14.8a38.67,38.67,0,0,0-17.51-4.64,13.11,13.11,0,0,0-11,5.3,13.63,13.63,0,0,0,3,19,13.07,13.07,0,0,0,9.65,2.53c3.72-.4,12.54-5,13.47.74,3-2.1,4.39-5.19,3.63-7.1-.83-2.07-3.48-3-5.16-3.11,3.7-.31,7.56,1.94,6.65,5.43-3.46,13.3-31.29,13.89-40.9,4.59a12.45,12.45,0,0,1-2.82-3.94,10.8,10.8,0,0,0,1.88,4.13c10.79,15.45,46.27,8.38,48-6.19.45-3.79-1.71-7.84-5.65-10.57a29.46,29.46,0,0,0-7.95-3.54C347.94,280.75,350.44,288.05,350.72,291.28Zm-14.36-6.33a13,13,0,0,1-6.86,11.75l-.06,0c-.29.16-.59.3-.9.43l-.51.21-.24.09q-.55.21-1.12.36l-.1,0c-.35.09-.71.17-1.08.23l-.57.09-.34,0a13.94,13.94,0,0,1-1.45.08,13,13,0,0,1-3.26-.41,13.22,13.22,0,0,1-9.51-9.64,12.91,12.91,0,0,1,4.44-13,13.39,13.39,0,0,1,14-1.74,13.17,13.17,0,0,1,5.31,4.51,12.88,12.88,0,0,1,1.58,3.17A14,14,0,0,1,336.37,284.95Zm-6,10.33a12.42,12.42,0,0,1-5.72,2.4,12,12,0,0,1-1.42.05,6.31,6.31,0,0,1,2.05-.73,9,9,0,0,0,1.84-.46c1.14-.47,3-1.65,3.19-1.26h.06Zm.78-.65-.16,0c-.34.08-.47-.16-.3-.46a9.19,9.19,0,0,0,.91-2.45,1.39,1.39,0,0,1,.68-.84,6.08,6.08,0,0,0,2.27-1.55l.1-.11A12.36,12.36,0,0,1,331.18,294.64Zm-7.91,2.68c-2,.87-6.15-.54-6.79-2.58a11.74,11.74,0,0,0,3.19,0,.73.73,0,0,1,.64.09,14.35,14.35,0,0,0,2.79,1.94C323.41,296.89,323.6,297.18,323.28,297.32ZM318.45,286c.68.74,1.19,1.67,1.8,2.47.4.52,1.25,1.4.93,2a10.16,10.16,0,0,0-1.06,2.93c-.12.49-.91.8-1.45.8a5.91,5.91,0,0,1-2.77-.4,13.39,13.39,0,0,1-3-4,4.81,4.81,0,0,1,.39-3.32c.3-.88.43-1,.89-1.06S317.62,285.11,318.45,286Z" transform="translate(-146.9 -271.84)"/></svg>